<svg width="334" height="140" viewBox="0 0 334 140" fill="none"
    xmlns="http://www.w3.org/2000/svg">
    <path opacity="0.4" d="M87.3953 140C126.543 140 158.278 138.147 158.278 135.862C158.278 133.576 126.543 131.723 87.3953 131.723C48.248 131.723 16.5128 133.576 16.5128 135.862C16.5128 138.147 48.248 140 87.3953 140Z" fill="#8A1114"/>
    <path d="M66.6997 27.4339C63.8519 29.7809 61.0698 33.5647 62.7003 37.6702C64.3308 41.7757 74.7645 42.1888 76.958 40.4998C79.8095 38.3063 77.2906 28.538 75.0679 28.4795C74.8997 24.8566 69.0797 25.4707 66.6997 27.4339Z" fill="#263238"/>
    <path d="M62.7113 66.9715C62.7113 66.9715 63.8555 87.7877 65.1168 99.0586C65.2448 109.642 67.6759 133.551 67.6759 133.551H70.3483C70.7979 121.688 74.0991 110.611 71.9056 100.148C77.0238 79.6023 73.5179 66.9861 73.5179 66.9861L62.7113 66.9715Z" fill="#FFB573"/>
    <path d="M65.6213 66.9861C65.6213 66.9861 71.1233 90.0762 72.6295 99.9104C74.2161 110.242 76.5777 130.29 76.4681 133.544H78.7749C78.7749 133.544 82.65 113.261 79.0637 100.276C82.0212 71.0294 74.7242 67.008 74.7242 67.008L65.6213 66.9861Z" fill="#FFB573"/>
    <path d="M52.4275 40.2804C52.2556 39.0338 49.9671 38.9278 49.9671 38.9278L48.8703 38.3757C48.6778 38.2579 48.447 38.2194 48.2267 38.2685C48.0064 38.3176 47.8137 38.4505 47.6895 38.6389L47.3239 39.2458C47.2175 39.4847 47.1998 39.7537 47.2742 40.0044C47.3487 40.2551 47.5102 40.471 47.7297 40.6131L48.0624 40.8544C48.6284 41.2589 49.298 41.4935 49.9927 41.5307L51.0053 41.5855C51.2277 41.5983 51.4506 41.5711 51.6634 41.5051C51.9153 41.4259 52.1302 41.2584 52.2686 41.0334C52.407 40.8084 52.4595 40.541 52.4165 40.2804H52.4275Z" fill="#FFB573"/>
    <path d="M64.4807 47.5738C64.3418 47.7163 64.2687 47.7858 64.1663 47.8772L63.8775 48.1331C63.6874 48.294 63.49 48.4438 63.2962 48.5937C62.9014 48.8862 62.4992 49.1567 62.0861 49.4126C61.2571 49.9116 60.3862 50.3373 59.4832 50.6849C57.6848 51.3845 55.7755 51.7559 53.8459 51.7816H53.6778C53.5897 51.7797 53.5017 51.7724 53.4145 51.7597C53.2428 51.7345 53.0747 51.6891 52.9137 51.6244C52.6426 51.5127 52.3947 51.3515 52.1825 51.1491C51.9078 50.8793 51.6837 50.5623 51.5208 50.2133C51.2928 49.7189 51.1223 49.2001 51.0127 48.6668C50.8188 47.7491 50.6966 46.8178 50.6471 45.8811C50.5481 44.0871 50.5848 42.2882 50.7568 40.4998C50.7771 40.2999 50.8703 40.1145 51.0184 39.9788C51.1666 39.8431 51.3595 39.7666 51.5604 39.7639C51.7613 39.7612 51.9562 39.8325 52.108 39.9641C52.2598 40.0957 52.3579 40.2786 52.3836 40.4778V40.4998C52.581 42.2034 52.8077 43.9326 53.1148 45.5887C53.2501 46.3907 53.437 47.1832 53.6741 47.9613C53.7685 48.2795 53.8985 48.5861 54.0616 48.8752C54.1274 48.9812 54.1932 49.0324 54.164 48.9959C54.1156 48.9435 54.0554 48.9034 53.9885 48.8789C53.9292 48.852 53.8665 48.8335 53.8021 48.824H53.7034C54.4893 48.7523 55.2689 48.6227 56.0358 48.4365C56.7957 48.2467 57.541 48.0024 58.2658 47.7054C58.9876 47.3964 59.6833 47.0296 60.346 46.6086C60.6786 46.4039 61.0004 46.1882 61.3111 45.9579C61.4646 45.8446 61.6109 45.7276 61.7571 45.6106L61.9691 45.4351L62.13 45.2925L62.225 45.2084C62.5439 44.9229 62.9616 44.7732 63.3892 44.7912C63.8168 44.8092 64.2205 44.9935 64.5142 45.3048C64.8079 45.6162 64.9684 46.0299 64.9614 46.4578C64.9545 46.8858 64.7807 47.2941 64.477 47.5957L64.4807 47.5738Z" fill="#FFB573"/>
    <path d="M66.2793 43.5158C63.3876 43.0332 60.3533 45.0001 58.7813 46.6013C57.9697 49.0434 60.569 52.0119 60.569 52.0119C60.569 52.0119 64.2723 49.738 65.6067 48.1843C66.941 46.6306 67.9464 43.7937 66.2793 43.5158Z" fill="#E0E0E0"/>
    <path d="M75.2361 66.7083C75.2361 66.7083 79.316 69.6037 80.0837 79.2294C80.3908 83.0205 80.9428 98.1446 82.1054 104.652C77.9194 107.642 65.3873 107.233 63.4241 105.485C63.9798 92.3246 58.9494 74.8681 62.5979 66.8399C68.6373 66.0978 75.2361 66.7083 75.2361 66.7083Z" fill="#263238"/>
    <path opacity="0.2" d="M71.0977 94.3133C71.1525 88.7821 70.3373 81.1707 67.8623 76.6594C68.7068 82.2894 71.0977 94.3133 71.0977 94.3133Z" fill="black"/>
    <path d="M60.6823 47.9759C60.6823 51.1089 58.1854 52.7541 61.0113 55.1669C61.1795 57.8722 61.3769 62.7161 62.2068 67.1287C63.0659 68.3242 69.3466 68.2255 75.8722 66.8107C75.0204 63.0269 75.3348 56.8632 77.5685 48.4329C77.6875 47.965 77.7086 47.4777 77.6304 47.0013C77.5523 46.5249 77.3766 46.0698 77.1144 45.6645C76.8522 45.2591 76.5091 44.9123 76.1066 44.6458C75.7041 44.3792 75.251 44.1986 74.7754 44.1154C74.238 44.0203 73.6787 43.9326 73.0865 43.8595C71.0456 43.5586 68.9857 43.4047 66.9228 43.3988C66.2574 43.3988 65.5665 43.4427 64.9084 43.4866C63.7652 43.5572 62.6919 44.0608 61.9068 44.8948C61.1217 45.7288 60.6838 46.8305 60.6823 47.9759Z" fill="#E0E0E0"/>
    <path d="M74.0136 53.4156L66.3548 55.15C66.0634 55.216 65.8807 55.5058 65.9467 55.7972L68.4263 66.7469C68.4923 67.0384 68.7821 67.2211 69.0735 67.1551L76.7323 65.4207C77.0237 65.3547 77.2065 65.065 77.1405 64.7735L74.6608 53.8238C74.5948 53.5323 74.305 53.3496 74.0136 53.4156Z" fill="#8A1114"/>
    <path d="M67.6795 47.4385C67.6795 47.4385 66.4402 48.9227 65.4166 49.2664L65.2996 49.9975C66.594 49.8322 67.7887 49.2161 68.6739 48.2574L67.6795 47.4385Z" fill="#8A1114"/>
    <path d="M64.3125 46.5428C64.3125 46.5428 64.2613 48.4731 64.7951 49.4163L64.3966 50.0451C63.5348 49.0643 63.0456 47.8116 63.0147 46.5063L64.3125 46.5428Z" fill="#8A1114"/>
    <path d="M72.8342 36.9061C72.3443 38.851 71.7704 42.4373 73.0865 43.8521C73.0865 43.8521 68.184 45.1902 64.9888 49.5771C63.5265 44.9672 66.9374 43.3915 66.9374 43.3915C69.1711 43.0259 69.2003 41.3954 68.8932 39.8307L72.8342 36.9061Z" fill="#FFB573"/>
    <path opacity="0.2" d="M71.2293 38.1016L68.8969 39.8381C68.9723 40.1992 69.0163 40.5661 69.0285 40.9348C69.8767 40.8763 71.0831 40.0391 71.222 39.1654C71.2861 38.8139 71.2886 38.4539 71.2293 38.1016Z" fill="black"/>
    <path d="M75.1081 33.4404C74.1686 36.5917 73.8396 37.948 71.8618 39.1874C68.8859 41.0482 65.2813 39.1325 65.2594 35.7472C65.2594 32.6983 66.7838 28.07 70.1728 27.5655C73.5617 27.061 76.0623 30.2854 75.1081 33.4404Z" fill="#FFB573"/>
    <path d="M72.6514 28.8377C71.7631 31.8757 72.5235 35.0526 74.3368 35.4182C76.8556 34.4787 76.7313 31.682 76.0879 30.4024C75.4445 29.1229 73.1632 27.0866 72.6514 28.8377Z" fill="#263238"/>
    <path d="M74.0297 34.2959C72.6295 34.7602 72.3589 35.6997 72.3589 35.6997C72.3589 35.6997 73.3204 35.0197 74.2417 35.1477C74.108 34.8832 74.0355 34.5921 74.0297 34.2959Z" fill="#263238"/>
    <path d="M70.5311 33.1443C70.4689 33.4038 70.2825 33.5793 70.1106 33.5391C69.9388 33.4989 69.8474 33.2466 69.9096 32.9871C69.9717 32.7275 70.1582 32.5484 70.33 32.5922C70.5018 32.6361 70.5786 32.8847 70.5311 33.1443Z" fill="#263238"/>
    <path d="M67.2883 32.3729C67.2262 32.6324 67.0398 32.8079 66.8679 32.7641C66.6961 32.7202 66.6047 32.4752 66.6669 32.212C66.729 31.9488 66.9155 31.777 67.0873 31.8209C67.2591 31.8647 67.3542 32.1097 67.2883 32.3729Z" fill="#263238"/>
    <path d="M67.1677 31.8538L66.5791 31.5138C66.5791 31.5138 66.7875 32.0841 67.1677 31.8538Z" fill="#263238"/>
    <path d="M67.9025 32.797C67.5309 33.3323 67.0853 33.8123 66.5791 34.2227C66.6903 34.3515 66.8277 34.455 66.9822 34.5263C67.1367 34.5975 67.3046 34.6349 67.4748 34.6358L67.9025 32.797Z" fill="#ED893E"/>
    <path d="M75.1264 36.6027C74.9328 36.83 74.6925 37.0129 74.4219 37.1391C74.1512 37.2652 73.8566 37.3317 73.5581 37.3338C72.794 37.3119 72.6624 36.4345 73.0828 35.7143C73.4484 35.0636 74.3111 34.2922 74.9765 34.6614C75.6419 35.0307 75.6455 36.0104 75.1264 36.6027Z" fill="#FFB573"/>
    <path d="M71.1416 32.0256C71.1022 32.0061 71.072 31.972 71.0575 31.9305C70.9988 31.7394 70.8972 31.5642 70.7603 31.4184C70.6234 31.2727 70.4549 31.1602 70.2678 31.0897C70.2274 31.0785 70.193 31.0521 70.1718 31.0159C70.1506 30.9797 70.1444 30.9366 70.1545 30.8959C70.1591 30.8759 70.1678 30.857 70.1801 30.8404C70.1923 30.8239 70.2078 30.81 70.2257 30.7997C70.2435 30.7894 70.2633 30.7829 70.2837 30.7806C70.3042 30.7783 70.3249 30.7802 70.3446 30.7863C70.5838 30.8696 70.8001 31.0079 70.976 31.1902C71.1519 31.3724 71.2825 31.5935 71.3573 31.8355C71.3647 31.8549 71.3679 31.8756 71.3669 31.8963C71.3659 31.917 71.3605 31.9373 71.3513 31.9559C71.342 31.9744 71.329 31.9909 71.313 32.0041C71.297 32.0174 71.2785 32.0272 71.2586 32.0329C71.22 32.0453 71.1783 32.0427 71.1416 32.0256Z" fill="#263238"/>
    <path d="M66.1112 30.8155C66.0697 30.8169 66.0292 30.8025 65.9978 30.7753C65.969 30.7453 65.9529 30.7054 65.9529 30.6638C65.9529 30.6222 65.969 30.5823 65.9978 30.5523C66.1608 30.3638 66.3669 30.2176 66.5986 30.1259C66.8303 30.0342 67.0807 29.9999 67.3285 30.0259C67.3703 30.0331 67.4076 30.0561 67.4328 30.0901C67.458 30.1242 67.4691 30.1666 67.4638 30.2087C67.4575 30.2499 67.4351 30.2869 67.4015 30.3116C67.3679 30.3362 67.3259 30.3466 67.2847 30.3403C67.0885 30.3207 66.8906 30.3491 66.7078 30.423C66.525 30.4968 66.3629 30.614 66.2355 30.7643C66.2197 30.7813 66.2004 30.7947 66.1789 30.8035C66.1575 30.8124 66.1343 30.8165 66.1112 30.8155Z" fill="#263238"/>
    <path d="M70.4031 32.6288L69.8145 32.2852C69.8145 32.2852 70.0229 32.8591 70.4031 32.6288Z" fill="#263238"/>
    <path d="M70.213 58.5851L67.2883 58.0184L67.6174 61.3781C67.6174 61.3781 69.8108 61.2831 71.0611 60.2814L71.1781 59.8427C71.0428 59.1152 70.8783 58.8483 70.213 58.5851Z" fill="#FFB573"/>
    <path d="M65.5299 59.4515L65.8699 60.8736C65.9196 61.0779 66.044 61.2561 66.2186 61.3731C66.3932 61.4902 66.6053 61.5376 66.8131 61.5061L67.632 61.3781L67.303 58.0184L66.0563 58.4718C65.8638 58.5423 65.7039 58.681 65.6069 58.8616C65.5099 59.0422 65.4825 59.2521 65.5299 59.4515Z" fill="#FFB573"/>
    <path d="M76.7532 46.5721C77.6419 48.2739 78.4174 50.0325 79.0747 51.8364C79.4037 52.7394 79.7144 53.6643 79.963 54.6112C80.2341 55.5923 80.4177 56.5955 80.5114 57.609C80.5333 57.8758 80.5443 58.15 80.548 58.4279V58.5266V58.6838C80.5391 58.7915 80.5195 58.898 80.4895 59.0018C80.4358 59.2034 80.352 59.3956 80.2409 59.5721C80.0715 59.8349 79.85 60.0601 79.5901 60.2338C79.2723 60.4453 78.9214 60.6022 78.5519 60.6981C78.272 60.7755 77.9875 60.8353 77.7001 60.8773C76.7036 61.0026 75.6981 61.0405 74.695 60.9906C72.7933 60.9028 70.9006 60.6756 69.0322 60.3106C68.8298 60.2771 68.6474 60.1685 68.5216 60.0065C68.3957 59.8445 68.3355 59.641 68.3531 59.4366C68.3706 59.2322 68.4645 59.042 68.6162 58.9038C68.7678 58.7656 68.9659 58.6896 69.1711 58.6911C70.999 58.6582 72.8488 58.6107 74.6292 58.4754C75.4816 58.4163 76.3284 58.2941 77.1627 58.1098C77.333 58.0704 77.5004 58.0191 77.6635 57.9563C77.7444 57.9339 77.8193 57.8939 77.8829 57.8393C77.8127 57.8808 77.7547 57.9401 77.7147 58.0111C77.6661 58.0881 77.6292 58.1719 77.605 58.2597C77.5921 58.309 77.5823 58.3591 77.5758 58.4096C77.5739 58.4339 77.5739 58.4584 77.5758 58.4827C77.5758 58.2963 77.5429 58.1171 77.5136 57.9124C77.1939 56.218 76.6952 54.5624 76.0257 52.9734C75.364 51.3246 74.6073 49.6466 73.8322 48.0636V48.0344C73.6751 47.6518 73.6679 47.2241 73.8119 46.8364C73.9559 46.4488 74.2407 46.1296 74.6095 45.9424C74.9783 45.7552 75.4041 45.7138 75.802 45.8265C76.2 45.9391 76.5409 46.1975 76.7569 46.5501L76.7532 46.5721Z" fill="#FFB573"/>
    <path d="M74.9656 44.2287C77.0603 44.6162 77.9926 46.4989 79.5134 50.2571C79.0491 52.7869 75.3311 54.1177 75.3311 54.1177C75.3311 54.1177 73.1961 50.3339 72.7721 48.3269C72.348 46.3198 72.8525 43.8375 74.9656 44.2287Z" fill="#E0E0E0"/>
    <path d="M70.5384 133.58C70.5212 133.532 70.488 133.49 70.4441 133.463C70.4002 133.436 70.3484 133.424 70.2971 133.431L67.8184 133.394C67.5648 133.377 67.3115 133.431 67.0873 133.551C65.9526 134.26 64.6781 134.715 63.351 134.886C62.8246 134.966 63.0622 135.854 64.3052 135.869C66.3561 135.891 66.729 135.737 68.4801 135.756C69.9754 135.774 69.2625 135.84 70.4506 135.869C70.7358 135.869 70.9697 135.69 70.9332 135.503L70.5384 133.58Z" fill="#263238"/>
    <path d="M79.0893 133.58C79.0716 133.532 79.0382 133.491 78.9945 133.464C78.9508 133.437 78.8992 133.425 78.848 133.431L76.8263 133.394C76.5726 133.376 76.319 133.43 76.0952 133.551C75.364 134.059 75.4664 134.648 73.7993 134.886C73.2729 134.966 73.5325 135.854 74.7754 135.869C76.8263 135.891 76.702 135.756 77.5356 135.756C78.3691 135.756 77.8573 135.84 79.0491 135.869C79.3342 135.869 79.5645 135.69 79.5207 135.503L79.0893 133.58Z" fill="#263238"/>
    <path d="M66.3305 48.0015C67.3688 48.0454 69.2734 48.8972 69.884 49.8075C70.7467 48.9118 74.1174 46.8317 74.1759 44.013C73.7633 43.6163 73.2434 43.3494 72.6806 43.2453C72.6806 43.2453 68.184 45.4205 66.3305 48.0015Z" fill="#FAFAFA"/>
    <path d="M64.6488 47.8553C64.6488 47.8553 64.3673 45.5777 67.1238 43.3659C66.846 43.1393 65.7565 43.3952 65.7565 43.3952C65.7565 43.3952 62.5358 44.7807 62.6308 48.3671C63.2112 47.9403 63.9352 47.7567 64.6488 47.8553Z" fill="#FAFAFA"/>
    <path d="M64.2394 48.8204C63.8409 49.0069 63.6837 50.3047 64.2394 50.6081C64.7951 50.9115 64.7402 49.6722 65.0619 49.2481C65.3837 48.8241 64.9376 48.495 64.2394 48.8204Z" fill="#8A1114"/>
    <path d="M64.7293 49.3249C64.4441 49.6905 64.8134 50.9335 65.4275 50.9298C66.0417 50.9261 65.5116 49.8331 65.6323 49.292C65.7529 48.7509 65.2155 48.6815 64.7293 49.3249Z" fill="#8A1114"/>
    <path d="M64.8134 50.2498C64.1297 49.1933 64.0822 54.7611 65.7383 56.9546C65.6286 54.794 66.7875 51.7304 64.8134 50.2498Z" fill="#8A1114"/>
    <path d="M64.7512 50.2023C64.4478 49.1275 62.9233 53.8362 63.7678 56.1357C64.2467 54.2749 66.0344 51.979 64.7512 50.2023Z" fill="#8A1114"/>
    <path d="M69.8474 35.6412C70.0067 35.5718 70.1596 35.4887 70.3044 35.3926C70.3126 35.3844 70.3191 35.3748 70.3235 35.3641C70.3279 35.3534 70.3302 35.342 70.3302 35.3304C70.3302 35.3189 70.3279 35.3075 70.3235 35.2968C70.3191 35.2861 70.3126 35.2764 70.3044 35.2683C70.2892 35.2488 70.2672 35.2358 70.2429 35.2317C70.2185 35.2277 70.1935 35.2329 70.1728 35.2464C69.8468 35.465 69.4759 35.6077 69.0874 35.664C68.6989 35.7203 68.3028 35.6888 67.9281 35.5717C67.9171 35.5669 67.9052 35.5643 67.8931 35.564C67.8811 35.5638 67.8691 35.566 67.8579 35.5704C67.8467 35.5748 67.8365 35.5814 67.8278 35.5898C67.8192 35.5982 67.8122 35.6082 67.8075 35.6192C67.7992 35.642 67.8004 35.6672 67.8107 35.6891C67.821 35.711 67.8395 35.728 67.8623 35.7362C68.5131 35.9504 69.2201 35.9165 69.8474 35.6412Z" fill="#263238"/>
    <path d="M59.2382 38.2185H40.5607V38.8254H59.2382V38.2185Z" fill="#8A1114"/>
    <path d="M58.7922 38.8254H41.0067L41.7891 39.2495H58.0099L58.7922 38.8254Z" fill="#8A1114"/>
    <path opacity="0.2" d="M58.7922 38.8254H41.0067L41.7891 39.2495H58.0099L58.7922 38.8254Z" fill="black"/>
    <path d="M46.5453 21.9612C46.436 21.9602 46.3315 21.9164 46.2542 21.8391C46.177 21.7618 46.1331 21.6573 46.1322 21.5481V20.1625C46.1331 20.0532 46.177 19.9487 46.2542 19.8714C46.3315 19.7942 46.436 19.7503 46.5453 19.7494C46.6545 19.7503 46.7591 19.7942 46.8363 19.8714C46.9136 19.9487 46.9574 20.0532 46.9584 20.1625V21.5481C46.9574 21.6573 46.9136 21.7618 46.8363 21.8391C46.7591 21.9164 46.6545 21.9602 46.5453 21.9612Z" fill="#263238"/>
    <path d="M47.2106 20.0784V19.8956C47.2106 19.7179 47.0666 19.5739 46.8889 19.5739H46.2016C46.024 19.5739 45.8799 19.7179 45.8799 19.8956V20.0784C45.8799 20.2561 46.024 20.4001 46.2016 20.4001H46.8889C47.0666 20.4001 47.2106 20.2561 47.2106 20.0784Z" fill="#263238"/>
    <path d="M47.207 24.9699V21.018C47.207 20.975 47.1901 20.9337 47.1601 20.9029C47.13 20.8722 47.0891 20.8544 47.0461 20.8535H46.0444C46.0014 20.8544 45.9605 20.8722 45.9304 20.9029C45.9004 20.9337 45.8835 20.975 45.8836 21.018V24.9699C45.8837 25.2669 45.8209 25.5606 45.6992 25.8315C45.5776 26.1025 45.4 26.3446 45.178 26.5419C44.9568 26.7406 44.7797 26.9836 44.6582 27.2549C44.5367 27.5263 44.4734 27.8202 44.4724 28.1176V38.2551H48.6144V28.1176C48.6142 27.8201 48.5512 27.526 48.4296 27.2545C48.308 26.983 48.1306 26.7402 47.9089 26.5419C47.6879 26.344 47.5112 26.1016 47.3902 25.8308C47.2693 25.5599 47.2068 25.2666 47.207 24.9699Z" fill="#8A1114"/>
    <path d="M48.6145 29.3167H45.8799V35.8715H48.6145V29.3167Z" fill="#E0E0E0"/>
    <path d="M52.4969 38.2185H52.0034C52.1677 38.2296 52.3326 38.2296 52.4969 38.2185Z" fill="#8A1114"/>
    <path d="M55.4764 38.2185H54.9792C55.1448 38.2295 55.3109 38.2295 55.4764 38.2185Z" fill="#8A1114"/>
    <path opacity="0.2" d="M51.8352 30.4865V32.1499C51.8352 33.4733 52.5883 34.5737 53.5425 34.7089V37.6336C53.5425 38.0833 53.1038 38.2112 52.7638 38.2405H54.7123C54.3723 38.2112 53.9336 38.0833 53.9336 37.6336V34.7089C54.8878 34.5773 55.6409 33.4769 55.6409 32.1499V30.4865H51.8352Z" fill="#8A1114"/>
    <path d="M74.4866 28.9218C73.0243 29.5433 68.1255 29.7334 66.2062 29.3166C68.1913 26.5126 72.6514 25.6901 74.4866 28.9218Z" fill="#263238"/>
    <path d="M79.0966 38.9387C79.0825 38.9385 79.0686 38.935 79.0559 38.9287C79.0433 38.9224 79.0322 38.9133 79.0235 38.9022C78.976 38.8364 77.8975 37.2497 77.8756 33.0017C77.8756 31.2286 77.3308 29.8029 76.4132 29.0827C76.1748 28.8857 75.8935 28.7473 75.5919 28.6787C75.2903 28.6102 74.9769 28.6133 74.6767 28.6878C74.665 28.6905 74.6528 28.6908 74.6409 28.6887C74.629 28.6866 74.6177 28.6823 74.6075 28.6758C74.5973 28.6694 74.5885 28.661 74.5816 28.6511C74.5746 28.6413 74.5697 28.6301 74.567 28.6184C74.5644 28.6066 74.5641 28.5944 74.5662 28.5826C74.5682 28.5707 74.5726 28.5593 74.5791 28.5491C74.5855 28.539 74.5939 28.5302 74.6038 28.5232C74.6136 28.5163 74.6247 28.5113 74.6365 28.5087C74.9627 28.4311 75.3024 28.4292 75.6294 28.5034C75.9564 28.5775 76.2621 28.7257 76.5229 28.9364C77.4917 29.6932 78.051 31.1738 78.062 32.998C78.0839 37.1803 79.1587 38.7815 79.1587 38.7962C79.1658 38.806 79.1708 38.8171 79.1735 38.8289C79.1761 38.8406 79.1765 38.8528 79.1744 38.8647C79.1724 38.8766 79.168 38.888 79.1616 38.8982C79.1551 38.9084 79.1467 38.9172 79.1368 38.9241C79.1246 38.9318 79.1109 38.9367 79.0966 38.9387Z" fill="#263238"/>
    <path d="M105.404 17.417C106.424 18.8135 106.42 20.9887 106.073 22.1695C104.245 21.3397 104.53 18.9561 104.53 18.9561L105.404 17.417Z" fill="#263238"/>
    <path d="M110.869 34.7016L111.922 35.8605L113.019 37.0377C113.75 37.8164 114.481 38.5768 115.234 39.308C115.6 39.6735 115.965 40.0391 116.357 40.3608C116.748 40.6825 117.088 41.0262 117.472 41.3223C117.856 41.6184 118.203 41.8817 118.543 42.1083C118.799 42.28 119.068 42.4316 119.347 42.5616L118.788 42.4739C118.622 42.4539 118.454 42.4913 118.313 42.5799C118.313 42.5799 118.4 42.5799 118.525 42.5068C118.864 42.2989 119.179 42.0536 119.464 41.7756C120.213 41.0644 120.913 40.3034 121.559 39.4981C122.257 38.6609 122.937 37.7689 123.613 36.8659C124.29 35.9629 124.966 35.038 125.631 34.1277L125.664 34.0875C125.897 33.78 126.231 33.564 126.607 33.4771C126.983 33.3901 127.377 33.4378 127.722 33.6117C128.066 33.7856 128.338 34.0749 128.492 34.429C128.645 34.7831 128.669 35.1797 128.56 35.5498C128.19 36.7052 127.761 37.8411 127.277 38.9534C126.798 40.0501 126.268 41.1468 125.668 42.2436C125.046 43.3842 124.327 44.4692 123.518 45.4863C123.036 46.0876 122.492 46.6365 121.895 47.1241C121.5 47.444 121.066 47.7141 120.605 47.9284C119.927 48.2443 119.184 48.397 118.437 48.3744C118.299 48.3692 118.162 48.3508 118.027 48.3195L117.874 48.2866C117.073 48.0947 116.298 47.8062 115.567 47.4275C114.954 47.1155 114.362 46.765 113.794 46.3783C112.752 45.6767 111.757 44.906 110.818 44.0715C109.897 43.2709 109.041 42.4337 108.211 41.5819C107.802 41.1505 107.393 40.7191 107.001 40.2731C106.61 39.8271 106.234 39.392 105.821 38.8839C105.36 38.2143 105.163 37.3977 105.268 36.5916C105.373 35.7854 105.773 35.0468 106.391 34.5182C107.009 33.9896 107.8 33.7083 108.613 33.7287C109.426 33.7491 110.202 34.0696 110.792 34.6285L110.869 34.7016Z" fill="#E0E0E0"/>
    <path d="M127.269 36.1018L130.527 36.259L129.47 31.872C129.47 31.872 126.439 32.095 125.953 33.6524C125.902 33.8261 125.913 34.0119 125.982 34.1789L126.582 35.6156C126.639 35.7535 126.733 35.8724 126.855 35.9585C126.977 36.0446 127.12 36.0943 127.269 36.1018Z" fill="#FF8B7B"/>
    <path d="M133.433 33.6561L132.804 32.1938C132.682 31.9103 132.463 31.6793 132.187 31.5414C131.91 31.4036 131.594 31.3679 131.294 31.4407L129.466 31.8903L130.523 36.2773L132.716 35.3926C132.879 35.3282 133.028 35.2316 133.153 35.1086C133.278 34.9855 133.377 34.8386 133.443 34.6765C133.51 34.5145 133.544 34.3406 133.542 34.1652C133.54 33.9899 133.503 33.8168 133.433 33.6561Z" fill="#FF8B7B"/>
    <path d="M103.166 96.8541C99.7081 81.6423 97.5694 63.3011 97.5694 63.3011L111.75 63.0744C111.75 63.0744 111.553 87.7914 111.582 98.1446C111.619 108.911 112.365 132.604 112.365 132.604H108.062C108.062 132.604 102.508 110.161 103.166 96.8541Z" fill="#263238"/>
    <path d="M102.062 75.8661L99.8177 79.1929C100.487 83.3459 101.28 87.9193 102.205 92.4013C102.593 85.5138 102.527 77.5112 102.062 75.8661Z" fill="black"/>
    <path d="M118.104 134.714C118.104 134.714 112.178 133.317 111.732 132.378H108.442L108.464 135.862H110.496L110.807 135.54L111.323 135.862C112.968 135.862 117.34 135.796 118.375 135.427C118.395 135.294 118.381 135.159 118.334 135.034C118.286 134.909 118.207 134.799 118.104 134.714Z" fill="#263238"/>
    <path d="M89.9763 96.4264C91.6178 81.1268 91.5666 70.9052 93.5663 63.3669L106.479 63.1731C106.479 63.1731 101.101 87.4404 98.604 97.5378C96.1071 107.635 91.8335 132.597 91.8335 132.597H87.8486C87.8486 132.597 86.5947 108.257 89.9763 96.4264Z" fill="#263238"/>
    <path d="M92.5427 66.3463C92.2575 68.1742 91.2412 78.9881 90.1884 82.9255C98.7978 86.7458 111.959 85.2432 112.365 82.7646C112.244 78.1729 111.999 66.3463 111.999 66.3463H92.5427Z" fill="#E0E0E0"/>
    <path opacity="0.1" d="M93.0216 68.3534C93.6228 69.3276 94.3491 70.2187 95.1822 71.0039C95.1822 71.0039 93.325 70.6712 93.0216 68.3534Z" fill="black"/>
    <path opacity="0.1" d="M110.328 70.9015C110.822 70.1654 111.222 69.3709 111.52 68.5362C111.52 68.5362 111.604 70.4043 110.328 70.9015Z" fill="black"/>
    <path opacity="0.1" d="M93.102 69.7316C93.3006 70.4639 93.5943 71.1669 93.9758 71.8228C93.6278 71.6112 93.3559 71.2949 93.1989 70.9192C93.0419 70.5436 93.008 70.1278 93.102 69.7316Z" fill="black"/>
    <path d="M95.5478 134.714C95.5478 134.714 91.8517 133.317 91.4277 132.378H88.1374L88.0716 135.862H90.766L91.084 135.54L91.5922 135.862C93.2373 135.862 94.7544 135.796 95.8 135.427C95.8249 135.296 95.8147 135.161 95.7704 135.036C95.7261 134.911 95.6492 134.799 95.5478 134.714Z" fill="#263238"/>
    <path d="M93.0911 32.8445C97.6535 32.2778 104.168 32.3327 108.537 33.0858C109.628 33.2837 110.63 33.8198 111.4 34.6182C112.171 35.4166 112.67 36.4369 112.829 37.5349C113.746 44.1336 112.957 55.6641 112.372 67.2713C102.391 70.6858 91.8627 67.2238 91.8627 67.2238C91.4971 64.884 92.316 57.2105 92.8644 53.116C92.0418 48.8862 90.3053 44.0423 89.1428 38.4233C89.0017 37.7947 88.9941 37.1435 89.1205 36.5118C89.2469 35.8801 89.5046 35.282 89.8767 34.7561C90.2489 34.2303 90.7273 33.7884 91.281 33.4591C91.8347 33.1298 92.4513 32.9204 93.0911 32.8445Z" fill="#263238"/>
    <path opacity="0.1" d="M93.0911 32.8445C97.6535 32.2778 104.168 32.3327 108.537 33.0858C109.628 33.2837 110.63 33.8198 111.4 34.6182C112.171 35.4166 112.67 36.4369 112.829 37.5349C113.746 44.1336 112.957 55.6641 112.372 67.2713C102.391 70.6858 91.8627 67.2238 91.8627 67.2238C91.4971 64.884 92.316 57.2105 92.8644 53.116C92.0418 48.8862 90.3053 44.0423 89.1428 38.4233C89.0017 37.7947 88.9941 37.1435 89.1205 36.5118C89.2469 35.8801 89.5046 35.282 89.8767 34.7561C90.2489 34.2303 90.7273 33.7884 91.281 33.4591C91.8347 33.1298 92.4513 32.9204 93.0911 32.8445Z" fill="white"/>
    <path d="M97.606 24.1327L102.797 28.3917C102.125 30.1794 101.913 32.0475 104.845 32.7531C105.576 33.7219 104.479 35.4218 103.177 36.0835C100.099 35.3816 98.3262 34.5554 97.1307 32.9139C97.5073 31.6271 98.1068 26.7758 97.606 24.1327Z" fill="#FF8B7B"/>
    <path opacity="0.2" d="M99.7702 25.9094L102.797 28.3881C102.633 28.8014 102.511 29.23 102.432 29.6676C101.258 29.7517 99.6277 28.5709 99.5545 27.496C99.5279 26.9584 99.601 26.4205 99.7702 25.9094Z" fill="black"/>
    <path d="M96.8602 21.23C97.3354 24.4873 97.4451 26.4176 99.2401 27.9457C101.942 30.2452 105.861 28.3734 106.373 25.0211C106.83 22.0123 105.978 17.1903 102.662 16.1813C101.926 15.9575 101.146 15.9243 100.394 16.0849C99.642 16.2455 98.9432 16.5945 98.3632 17.0993C97.7832 17.604 97.3409 18.2479 97.078 18.9704C96.8151 19.693 96.7402 20.4705 96.8602 21.23Z" fill="#FF8B7B"/>
    <path d="M96.8309 22.7325C97.1656 23.0952 97.598 23.3534 98.076 23.476C98.5541 23.5986 99.0574 23.5804 99.5253 23.4235C98.7429 22.6302 99.5033 19.7275 98.721 18.5466C100.235 18.8464 106.128 19.7019 106.691 17.6583C107.301 15.4648 104.863 13.7136 103.495 13.5491C103.898 14.4631 103.861 15.1248 102.362 14.8287C100.863 14.5325 94.685 13.1068 95.3686 16.0022C93.3799 16.0022 93.2446 18.8976 94.6996 20.2831C95.4967 21.02 96.2113 21.8413 96.8309 22.7325Z" fill="#263238"/>
    <path d="M95.7342 15.8633C94.5424 15.5671 94.9153 14.4704 95.1822 14.3571C94.0671 14.6276 93.6613 15.7243 95.0067 16.2288C96.352 16.7333 95.7342 15.8633 95.7342 15.8633Z" fill="#263238"/>
    <path d="M95.9426 23.2297C96.0535 23.5866 96.234 23.918 96.4737 24.2048C96.7134 24.4915 97.0075 24.728 97.3391 24.9004C98.2348 25.3574 98.8855 24.6043 98.8014 23.6611C98.732 22.8093 98.1872 21.548 97.2075 21.4676C96.992 21.4569 96.7772 21.5003 96.5828 21.594C96.3885 21.6877 96.2207 21.8287 96.0948 22.0039C95.969 22.1792 95.8891 22.3833 95.8625 22.5974C95.8359 22.8116 95.8635 23.029 95.9426 23.2297Z" fill="#FF8B7B"/>
    <path d="M101.434 21.347C101.456 21.6139 101.616 21.8186 101.799 21.804C101.982 21.7893 102.099 21.5554 102.077 21.2921C102.055 21.0289 101.894 20.8205 101.711 20.8352C101.529 20.8498 101.412 21.0801 101.434 21.347Z" fill="#263238"/>
    <path d="M104.621 21.2702C104.643 21.5371 104.804 21.7418 104.987 21.7235C105.17 21.7052 105.283 21.4786 105.261 21.2117C105.239 20.9448 105.078 20.7438 104.896 20.7584C104.713 20.773 104.6 21.0033 104.621 21.2702Z" fill="#263238"/>
    <path d="M103.974 21.6285C104.359 22.4143 104.851 23.1427 105.437 23.7927C105.002 24.2753 104.183 24.1583 104.183 24.1583L103.974 21.6285Z" fill="#FF5652"/>
    <path d="M100.94 20.4988C100.915 20.5058 100.888 20.5058 100.863 20.4988C100.844 20.4916 100.826 20.4805 100.811 20.4661C100.796 20.4517 100.784 20.4345 100.775 20.4153C100.767 20.3962 100.763 20.3755 100.763 20.3547C100.763 20.3339 100.767 20.3132 100.776 20.2941C100.863 20.0594 101.005 19.8488 101.19 19.6798C101.375 19.5107 101.598 19.388 101.839 19.3217C101.881 19.3134 101.923 19.3219 101.958 19.3452C101.993 19.3685 102.018 19.4047 102.026 19.4459C102.034 19.4872 102.026 19.53 102.002 19.5649C101.979 19.5999 101.943 19.6242 101.902 19.6324C101.71 19.6865 101.535 19.7854 101.389 19.9208C101.244 20.0562 101.132 20.2242 101.064 20.4111C101.053 20.435 101.035 20.4556 101.014 20.471C100.992 20.4863 100.967 20.4959 100.94 20.4988Z" fill="#263238"/>
    <path d="M106.471 20.0747C106.445 20.0749 106.419 20.0682 106.396 20.0554C106.373 20.0426 106.354 20.0241 106.34 20.0016C106.242 19.8307 106.106 19.6855 105.941 19.5781C105.776 19.4706 105.588 19.404 105.393 19.3838C105.372 19.3833 105.352 19.3788 105.333 19.3704C105.314 19.3621 105.297 19.3501 105.283 19.3352C105.268 19.3202 105.257 19.3026 105.25 19.2834C105.242 19.2641 105.239 19.2436 105.239 19.2229C105.241 19.1809 105.259 19.1413 105.29 19.1126C105.321 19.0839 105.362 19.0684 105.404 19.0694C105.652 19.092 105.89 19.1734 106.1 19.307C106.31 19.4405 106.485 19.6223 106.61 19.8371C106.631 19.8728 106.637 19.915 106.628 19.9552C106.618 19.9953 106.594 20.0303 106.559 20.0528C106.533 20.0702 106.502 20.078 106.471 20.0747Z" fill="#263238"/>
    <path d="M97.1307 32.9139C97.1307 32.9139 102.457 41.0079 104.483 46.7183C106.479 40.0172 106.709 34.6541 104.848 32.7531C104.249 33.5098 101.836 34.5335 97.1307 32.9139Z" fill="#E0E0E0"/>
    <path d="M95.3138 38.8949L94.7983 40.3572L94.2865 41.878C93.9465 42.8907 93.6358 43.907 93.347 44.905C93.2007 45.4059 93.0728 45.903 92.9558 46.3929C92.8388 46.8828 92.7255 47.369 92.645 47.8333C92.5646 48.2976 92.5025 48.7473 92.4622 49.1494C92.4414 49.4574 92.4414 49.7664 92.4622 50.0743L92.2722 49.5406C92.1186 49.2518 91.9614 49.175 91.9541 49.175C91.9468 49.175 92.0053 49.2481 92.1186 49.3285C92.4589 49.5292 92.8207 49.6911 93.1971 49.8111C94.1693 50.1378 95.1622 50.3991 96.1692 50.5935C97.2404 50.8055 98.3445 50.959 99.4595 51.1418C100.575 51.3246 101.722 51.4526 102.826 51.6098H102.878C103.263 51.6649 103.617 51.8548 103.876 52.1458C104.135 52.4367 104.282 52.8099 104.292 53.1993C104.302 53.5886 104.174 53.9689 103.931 54.2729C103.687 54.5768 103.344 54.7847 102.962 54.8598C101.771 55.0859 100.569 55.2518 99.3608 55.357C98.1544 55.4666 96.937 55.5215 95.705 55.5142C94.4059 55.5118 93.1094 55.3981 91.8298 55.1742C91.0785 55.034 90.3435 54.8171 89.6363 54.5271C89.1652 54.3329 88.7205 54.0798 88.3129 53.774C87.7122 53.3302 87.2239 52.7517 86.8871 52.085C86.825 51.9609 86.7748 51.8311 86.7373 51.6975L86.697 51.5476C86.4835 50.7518 86.3669 49.933 86.3497 49.1092C86.332 48.4222 86.3576 47.7347 86.4265 47.051C86.5434 45.8019 86.7449 44.5621 87.0297 43.3403C87.2893 42.1485 87.6183 40.9969 87.9729 39.86C88.1557 39.2933 88.3385 38.7303 88.5432 38.171C88.748 37.6117 88.9527 37.0743 89.2049 36.471C89.5348 35.683 90.1583 35.0542 90.9435 34.7176C91.7287 34.381 92.614 34.363 93.4122 34.6674C94.2104 34.9718 94.8589 35.5747 95.2207 36.3486C95.5824 37.1225 95.6289 38.0068 95.3504 38.8144L95.3138 38.8949Z" fill="#E0E0E0"/>
    <path d="M103.346 52.0814L106.577 52.4835L104.793 56.6183C104.793 56.6183 101.843 55.8871 101.631 54.2639C101.61 54.0844 101.653 53.9033 101.752 53.7521L102.585 52.4397C102.665 52.3144 102.779 52.2143 102.914 52.1509C103.048 52.0876 103.198 52.0634 103.346 52.0814Z" fill="#FF8B7B"/>
    <path d="M109.001 55.5434L108.131 56.8888C107.962 57.1474 107.707 57.3377 107.412 57.4261C107.116 57.5144 106.798 57.495 106.515 57.3713L104.793 56.6182L106.577 52.4835L108.592 53.7302C108.739 53.8211 108.867 53.9406 108.967 54.0815C109.068 54.2224 109.139 54.3819 109.177 54.5508C109.215 54.7196 109.219 54.8944 109.189 55.0649C109.159 55.2353 109.095 55.398 109.001 55.5434Z" fill="#FF8B7B"/>
    <path d="M97.3903 31.6563C96.7111 31.7642 96.0886 32.0993 95.6245 32.6069C97.0721 34.5387 99.1356 35.9186 101.474 36.5186C101.306 35.9592 101.81 34.3251 102.366 33.7402C100.322 33.4367 97.3903 31.6563 97.3903 31.6563Z" fill="#FAFAFA"/>
    <path d="M103.006 31.8574C103.699 31.9834 104.358 32.2537 104.94 32.6507C104.94 32.6507 106.987 34.9356 104.574 36.2261C104.738 35.6668 103.477 34.1752 102.348 33.7402C104.388 33.4367 103.006 31.8574 103.006 31.8574Z" fill="#FAFAFA"/>
    <path d="M102.574 35.0416C100.958 34.1752 98.9586 33.2357 99.5143 34.7528C100.07 36.27 99.3352 36.7964 100.059 37.3119C100.783 37.8274 102.253 36.4126 102.739 36.2152C103.225 36.0177 102.574 35.0416 102.574 35.0416Z" fill="#8A1114"/>
    <path d="M103.719 35.0307C104.951 34.2008 106.493 33.3015 106.219 34.7821C105.945 36.2627 106.625 36.7782 106.087 37.279C105.55 37.7799 104.168 36.3797 103.729 36.1823C103.291 35.9849 103.719 35.0307 103.719 35.0307Z" fill="#8A1114"/>
    <path d="M102.355 34.9247C102.72 34.7053 103.612 34.4275 104.055 35.0234C104.497 35.6193 104.355 36.6173 103.744 36.738C103.526 36.782 103.3 36.7662 103.09 36.6922C102.88 36.6182 102.694 36.4887 102.552 36.3175C102.688 36.0991 102.742 35.8399 102.706 35.5853C102.67 35.3307 102.546 35.0969 102.355 34.9247Z" fill="#8A1114"/>
    <path d="M92.0565 132.714L87.622 132.838L87.388 130.327L92.539 130.634L92.0565 132.714Z" fill="black"/>
    <path d="M112.522 132.707L107.733 132.838L107.202 130.663L112.551 130.144L112.522 132.707Z" fill="black"/>
    <path d="M102.084 51.2296C99.8449 50.5675 97.5359 50.1688 95.2041 50.0414C94.7069 50.0707 94.5168 61.305 94.557 65.9004C94.557 66.5218 101.708 66.3975 103.536 66.116C103.638 64.8329 103.66 55.4667 104.135 52.5384C104.172 52.3093 104.13 52.0746 104.017 51.8719C103.905 51.6691 103.727 51.5099 103.514 51.4197C103.061 51.2371 102.569 51.1717 102.084 51.2296Z" fill="white"/>
    <path d="M139.516 33.2466H119.219V33.8243H139.516V33.2466Z" fill="#8A1114"/>
    <path d="M139.092 33.8242H119.643L120.389 34.23H138.35L139.092 33.8242Z" fill="#8A1114"/>
    <path opacity="0.2" d="M139.092 33.8242H119.643L120.389 34.23H138.35L139.092 33.8242Z" fill="black"/>
    <path d="M130.205 25.0869C130.206 25.2526 130.157 25.4148 130.066 25.553C129.974 25.6911 129.843 25.799 129.691 25.8629C129.538 25.9268 129.369 25.9439 129.207 25.9121C129.044 25.8802 128.894 25.8007 128.777 25.6838C128.66 25.5669 128.579 25.4177 128.547 25.2552C128.514 25.0927 128.531 24.9242 128.594 24.771C128.657 24.6178 128.764 24.4868 128.902 24.3947C129.04 24.3025 129.202 24.2533 129.368 24.2533C129.477 24.2529 129.586 24.2741 129.688 24.3157C129.789 24.3574 129.882 24.4187 129.959 24.4962C130.037 24.5736 130.099 24.6657 130.141 24.767C130.183 24.8684 130.205 24.9771 130.205 25.0869Z" fill="#8A1114"/>
    <path d="M138.142 30.5669C137.578 28.8213 136.506 27.2837 135.063 26.1507L135.29 25.8619C136.791 27.0407 137.906 28.6408 138.493 30.4573L138.142 30.5669Z" fill="#8A1114"/>
    <path d="M133.795 25.3098C133.385 25.0836 132.959 24.8893 132.519 24.7286L132.643 24.3849C133.101 24.557 133.544 24.7635 133.97 25.0028L133.795 25.3098Z" fill="#8A1114"/>
    <path d="M129.368 25.0869C127.166 25.0869 125.054 25.9616 123.497 27.5186C121.94 29.0755 121.065 31.1873 121.065 33.3892H137.67C137.67 31.1873 136.795 29.0755 135.238 27.5186C133.681 25.9616 131.57 25.0869 129.368 25.0869Z" fill="#8A1114"/>
    <path opacity="0.3" d="M122.21 32.6471H124.356C124.43 32.6458 124.501 32.6189 124.558 32.5709C124.615 32.5229 124.653 32.4569 124.666 32.3839C125.098 30.11 126.454 28.1285 128.611 26.4066C128.66 26.3673 128.695 26.3131 128.71 26.2522C128.725 26.1914 128.72 26.1272 128.696 26.0694C128.672 26.0115 128.629 25.9632 128.575 25.9317C128.521 25.9002 128.458 25.8872 128.395 25.8948C126.764 26.1101 125.247 26.8504 124.074 28.004C122.901 29.1575 122.135 30.6615 121.892 32.2888C121.886 32.3338 121.89 32.3796 121.903 32.4229C121.917 32.4663 121.939 32.5063 121.969 32.5402C121.999 32.5741 122.036 32.6012 122.078 32.6197C122.119 32.6381 122.164 32.6474 122.21 32.6471Z" fill="white"/>
    <path d="M102.954 25.1088C103.125 25.1162 103.297 25.1077 103.466 25.0832C103.489 25.0788 103.509 25.0655 103.522 25.0463C103.535 25.0271 103.54 25.0036 103.536 24.9808C103.53 24.957 103.515 24.9361 103.495 24.922C103.475 24.9079 103.45 24.9015 103.426 24.9041C103.044 24.9608 102.654 24.9305 102.286 24.8152C101.917 24.7 101.58 24.5029 101.298 24.2387C101.29 24.23 101.28 24.223 101.269 24.2182C101.258 24.2135 101.246 24.211 101.234 24.211C101.222 24.211 101.211 24.2135 101.2 24.2182C101.189 24.223 101.179 24.23 101.17 24.2387C101.154 24.2562 101.146 24.279 101.146 24.3027C101.146 24.3263 101.154 24.3491 101.17 24.3666C101.654 24.8243 102.289 25.0884 102.954 25.1088Z" fill="#263238"/>
    <path d="M201.212 64.5L198.404 53.772L195.596 64.5H191.012L186.644 47.268H191.084L193.412 57.54L196.148 47.268H200.732L203.372 57.588L205.724 47.268H210.164L205.772 64.5H201.212ZM213.692 57.732H221.012L222.188 61.308H212.492L213.692 57.732ZM221.42 64.5L217.388 52.26L213.236 64.5H208.652L215.036 47.268H220.004L226.316 64.5H221.42ZM232.677 64.5H228.141V47.268H232.677V64.5ZM244.535 64.5H239.999V51.372H234.719V47.268H249.815V51.372H244.535V64.5ZM264.052 60.564V64.5H251.86V47.268H263.884V51.204H256.396V53.676H263.188V57.612H256.396V60.564H264.052ZM271.185 64.5H266.649V47.268H273.705C276.041 47.268 277.841 47.772 279.105 48.78C280.385 49.772 281.025 51.188 281.025 53.028C281.025 54.132 280.705 55.124 280.065 56.004C279.441 56.868 278.545 57.548 277.377 58.044L281.601 64.5H276.201L272.673 58.764H271.185V64.5ZM271.185 51.012V55.02H273.513C274.521 55.02 275.265 54.86 275.745 54.54C276.225 54.22 276.465 53.716 276.465 53.028C276.465 52.34 276.225 51.836 275.745 51.516C275.265 51.18 274.521 51.012 273.513 51.012H271.185ZM285.945 58.38H294.489L294.849 59.364H285.321L285.945 58.38ZM296.313 64.5L290.097 48.492L283.857 64.5H282.705L289.497 47.268H290.769L297.513 64.5H296.313ZM305.689 57.9H301.465V64.5H300.289V47.268H305.689C306.793 47.268 307.769 47.476 308.617 47.892C309.481 48.308 310.153 48.908 310.633 49.692C311.129 50.476 311.377 51.436 311.377 52.572C311.377 53.708 311.129 54.676 310.633 55.476C310.153 56.276 309.481 56.884 308.617 57.3C307.769 57.7 306.793 57.9 305.689 57.9ZM305.665 48.276H301.465V56.916H305.665C307.041 56.916 308.145 56.54 308.977 55.788C309.809 55.036 310.225 53.972 310.225 52.596C310.225 51.204 309.809 50.14 308.977 49.404C308.145 48.652 307.041 48.276 305.665 48.276ZM319.682 57.9H315.458V64.5H314.282V47.268H319.682C320.786 47.268 321.762 47.476 322.61 47.892C323.474 48.308 324.146 48.908 324.626 49.692C325.122 50.476 325.37 51.436 325.37 52.572C325.37 53.708 325.122 54.676 324.626 55.476C324.146 56.276 323.474 56.884 322.61 57.3C321.762 57.7 320.786 57.9 319.682 57.9ZM319.658 48.276H315.458V56.916H319.658C321.034 56.916 322.138 56.54 322.97 55.788C323.802 55.036 324.218 53.972 324.218 52.596C324.218 51.204 323.802 50.14 322.97 49.404C322.138 48.652 321.034 48.276 319.658 48.276Z" fill="white"/>
    <path opacity="0.9" d="M197.479 93.74C196.647 93.74 195.879 93.5853 195.175 93.276C194.471 92.9667 193.858 92.54 193.335 91.996C192.812 91.452 192.407 90.8173 192.119 90.092C191.831 89.356 191.687 88.572 191.687 87.74C191.687 86.908 191.831 86.1293 192.119 85.404C192.407 84.6787 192.812 84.044 193.335 83.5C193.858 82.956 194.471 82.5347 195.175 82.236C195.879 81.9267 196.647 81.772 197.479 81.772C198.311 81.772 199.079 81.9267 199.783 82.236C200.487 82.5347 201.1 82.956 201.623 83.5C202.156 84.044 202.567 84.6787 202.855 85.404C203.143 86.1293 203.287 86.908 203.287 87.74C203.287 88.572 203.143 89.356 202.855 90.092C202.567 90.8173 202.156 91.452 201.623 91.996C201.1 92.54 200.487 92.9667 199.783 93.276C199.079 93.5853 198.311 93.74 197.479 93.74ZM197.479 92.668C198.162 92.668 198.78 92.5453 199.335 92.3C199.89 92.044 200.37 91.692 200.775 91.244C201.18 90.7853 201.49 90.2573 201.703 89.66C201.927 89.0627 202.039 88.4227 202.039 87.74C202.039 87.0573 201.927 86.4173 201.703 85.82C201.49 85.2227 201.18 84.7053 200.775 84.268C200.37 83.82 199.89 83.4733 199.335 83.228C198.78 82.972 198.162 82.844 197.479 82.844C196.807 82.844 196.188 82.972 195.623 83.228C195.068 83.4733 194.588 83.82 194.183 84.268C193.778 84.7053 193.463 85.2227 193.239 85.82C193.026 86.4173 192.919 87.0573 192.919 87.74C192.919 88.4227 193.026 89.0627 193.239 89.66C193.463 90.2573 193.778 90.7853 194.183 91.244C194.588 91.692 195.068 92.044 195.623 92.3C196.188 92.5453 196.807 92.668 197.479 92.668ZM210.05 89.34H215.602L215.938 90.316H209.57L210.05 89.34ZM216.642 93.5L212.77 83.292L208.866 93.5H207.682L212.146 82.012H213.458L217.906 93.5H216.642ZM227.272 89.276C227.272 90.14 227.117 90.9027 226.808 91.564C226.509 92.2253 226.083 92.7427 225.528 93.116C224.984 93.4787 224.333 93.66 223.576 93.66C222.947 93.66 222.376 93.4947 221.864 93.164C221.352 92.8333 220.952 92.3693 220.664 91.772V96.588H219.544V85.068H220.584V86.892C220.872 86.2627 221.283 85.7773 221.816 85.436C222.349 85.084 222.936 84.908 223.576 84.908C224.323 84.908 224.973 85.0947 225.528 85.468C226.083 85.8307 226.509 86.3427 226.808 87.004C227.117 87.6547 227.272 88.412 227.272 89.276ZM226.136 89.276C226.136 88.2093 225.88 87.3773 225.368 86.78C224.867 86.1827 224.205 85.884 223.384 85.884C222.872 85.884 222.408 86.0173 221.992 86.284C221.576 86.5507 221.245 86.9347 221 87.436C220.765 87.9373 220.648 88.5507 220.648 89.276C220.648 89.9693 220.765 90.572 221 91.084C221.235 91.596 221.56 91.9907 221.976 92.268C222.392 92.5453 222.861 92.684 223.384 92.684C224.205 92.684 224.867 92.3853 225.368 91.788C225.88 91.1907 226.136 90.3533 226.136 89.276ZM236.803 89.276C236.803 90.14 236.649 90.9027 236.339 91.564C236.041 92.2253 235.614 92.7427 235.059 93.116C234.515 93.4787 233.865 93.66 233.107 93.66C232.478 93.66 231.907 93.4947 231.395 93.164C230.883 92.8333 230.483 92.3693 230.195 91.772V96.588H229.075V85.068H230.115V86.892C230.403 86.2627 230.814 85.7773 231.347 85.436C231.881 85.084 232.467 84.908 233.107 84.908C233.854 84.908 234.505 85.0947 235.059 85.468C235.614 85.8307 236.041 86.3427 236.339 87.004C236.649 87.6547 236.803 88.412 236.803 89.276ZM235.667 89.276C235.667 88.2093 235.411 87.3773 234.899 86.78C234.398 86.1827 233.737 85.884 232.915 85.884C232.403 85.884 231.939 86.0173 231.523 86.284C231.107 86.5507 230.777 86.9347 230.531 87.436C230.297 87.9373 230.179 88.5507 230.179 89.276C230.179 89.9693 230.297 90.572 230.531 91.084C230.766 91.596 231.091 91.9907 231.507 92.268C231.923 92.5453 232.393 92.684 232.915 92.684C233.737 92.684 234.398 92.3853 234.899 91.788C235.411 91.1907 235.667 90.3533 235.667 89.276ZM241.326 89.276C241.326 88.412 241.476 87.6547 241.774 87.004C242.084 86.3427 242.516 85.8307 243.07 85.468C243.625 85.0947 244.281 84.908 245.038 84.908C245.668 84.908 246.238 85.0787 246.75 85.42C247.262 85.7507 247.657 86.22 247.934 86.828V82.012H249.054V93.5H248.014V91.724C247.716 92.332 247.305 92.8067 246.782 93.148C246.27 93.4893 245.689 93.66 245.038 93.66C244.281 93.66 243.625 93.4787 243.07 93.116C242.516 92.7427 242.084 92.2253 241.774 91.564C241.476 90.9027 241.326 90.14 241.326 89.276ZM242.462 89.276C242.462 90.3533 242.713 91.1907 243.214 91.788C243.716 92.3853 244.377 92.684 245.198 92.684C245.753 92.684 246.233 92.5453 246.638 92.268C247.054 91.9907 247.374 91.596 247.598 91.084C247.833 90.5613 247.95 89.948 247.95 89.244C247.95 88.54 247.828 87.9373 247.582 87.436C247.348 86.9347 247.022 86.5507 246.606 86.284C246.201 86.0173 245.732 85.884 245.198 85.884C244.377 85.884 243.716 86.1827 243.214 86.78C242.713 87.3773 242.462 88.2093 242.462 89.276ZM254.858 93.66C254.282 93.66 253.748 93.5533 253.258 93.34C252.767 93.1267 252.34 92.8227 251.978 92.428C251.626 92.0333 251.348 91.5693 251.146 91.036C250.954 90.5027 250.858 89.916 250.858 89.276C250.858 88.6467 250.954 88.0653 251.146 87.532C251.348 86.9987 251.626 86.54 251.978 86.156C252.34 85.7613 252.767 85.4573 253.258 85.244C253.748 85.0307 254.282 84.924 254.858 84.924C255.444 84.924 255.983 85.0307 256.474 85.244C256.964 85.4573 257.386 85.7613 257.738 86.156C258.1 86.54 258.378 86.9987 258.57 87.532C258.772 88.0653 258.874 88.6467 258.874 89.276C258.874 89.916 258.772 90.5027 258.57 91.036C258.378 91.5693 258.1 92.0333 257.738 92.428C257.386 92.8227 256.964 93.1267 256.474 93.34C255.983 93.5533 255.444 93.66 254.858 93.66ZM254.858 92.7C255.412 92.7 255.903 92.5613 256.33 92.284C256.767 91.996 257.108 91.596 257.354 91.084C257.61 90.572 257.738 89.9693 257.738 89.276C257.738 88.5827 257.61 87.9853 257.354 87.484C257.108 86.9827 256.767 86.5933 256.33 86.316C255.903 86.0387 255.412 85.9 254.858 85.9C254.314 85.9 253.823 86.0387 253.386 86.316C252.959 86.5933 252.618 86.9827 252.362 87.484C252.116 87.9853 251.994 88.5827 251.994 89.276C251.994 89.9693 252.116 90.572 252.362 91.084C252.618 91.596 252.959 91.996 253.386 92.284C253.823 92.5613 254.314 92.7 254.858 92.7ZM269.261 93.74C268.439 93.74 267.677 93.5907 266.973 93.292C266.269 92.9933 265.65 92.5773 265.117 92.044C264.594 91.5107 264.183 90.8813 263.885 90.156C263.597 89.42 263.453 88.62 263.453 87.756C263.453 86.9027 263.591 86.1187 263.868 85.404C264.157 84.6787 264.557 84.044 265.069 83.5C265.581 82.9453 266.183 82.5187 266.877 82.22C267.581 81.9213 268.349 81.772 269.181 81.772C270.183 81.772 271.063 81.9587 271.821 82.332C272.578 82.7053 273.207 83.2067 273.709 83.836C274.21 84.4653 274.567 85.1693 274.781 85.948H273.421C273.261 85.372 272.994 84.8493 272.621 84.38C272.247 83.9107 271.767 83.5373 271.181 83.26C270.605 82.9827 269.927 82.844 269.149 82.844C268.274 82.844 267.501 83.0573 266.829 83.484C266.157 83.9 265.629 84.476 265.245 85.212C264.871 85.948 264.685 86.8013 264.685 87.772C264.685 88.7107 264.877 89.5533 265.261 90.3C265.645 91.0467 266.183 91.6333 266.877 92.06C267.57 92.4867 268.375 92.7 269.293 92.7C270.125 92.7 270.85 92.54 271.469 92.22C272.087 91.8893 272.583 91.4253 272.957 90.828C273.341 90.2307 273.581 89.532 273.677 88.732H269.165V87.756H274.925C274.925 88.6627 274.786 89.484 274.509 90.22C274.242 90.956 273.858 91.5907 273.357 92.124C272.855 92.6467 272.258 93.0467 271.565 93.324C270.882 93.6013 270.114 93.74 269.261 93.74ZM281.963 93.5V91.964C281.717 92.4867 281.349 92.9027 280.859 93.212C280.368 93.5107 279.792 93.66 279.131 93.66C278.256 93.66 277.557 93.436 277.035 92.988C276.512 92.5293 276.251 91.9213 276.251 91.164C276.251 90.3427 276.576 89.724 277.227 89.308C277.877 88.8813 278.843 88.668 280.123 88.668C280.379 88.668 280.629 88.6733 280.875 88.684C281.12 88.6947 281.445 88.7213 281.851 88.764V88.044C281.851 87.34 281.669 86.7907 281.307 86.396C280.955 86.0013 280.459 85.804 279.819 85.804C279.136 85.804 278.592 86.0067 278.187 86.412C277.781 86.8067 277.573 87.3453 277.562 88.028H276.539C276.549 87.3987 276.693 86.8547 276.971 86.396C277.248 85.9267 277.627 85.564 278.107 85.308C278.597 85.0413 279.163 84.908 279.803 84.908C280.795 84.908 281.563 85.18 282.107 85.724C282.651 86.268 282.923 87.0307 282.923 88.012V93.5H281.963ZM277.323 91.132C277.323 91.644 277.504 92.06 277.867 92.38C278.229 92.6893 278.704 92.844 279.291 92.844C280.08 92.844 280.704 92.6093 281.163 92.14C281.621 91.66 281.851 91.0253 281.851 90.236V89.484C281.488 89.452 281.173 89.4307 280.907 89.42C280.651 89.4093 280.405 89.404 280.171 89.404C279.221 89.404 278.507 89.548 278.027 89.836C277.557 90.1133 277.323 90.5453 277.323 91.132ZM286.399 88.988V93.5H285.279V85.068H286.319V86.988C286.617 86.3693 287.055 85.8733 287.631 85.5C288.207 85.1267 288.841 84.94 289.535 84.94V86.108C288.948 86.0867 288.415 86.188 287.935 86.412C287.465 86.636 287.092 86.9667 286.815 87.404C286.537 87.8413 286.399 88.3693 286.399 88.988ZM294.04 93.676C293.293 93.676 292.637 93.4893 292.072 93.116C291.507 92.7427 291.064 92.2253 290.744 91.564C290.424 90.9027 290.264 90.14 290.264 89.276C290.264 88.4227 290.424 87.6707 290.744 87.02C291.064 86.3587 291.507 85.8413 292.072 85.468C292.648 85.0947 293.304 84.908 294.04 84.908C294.691 84.908 295.277 85.0467 295.8 85.324C296.323 85.6013 296.749 85.996 297.08 86.508C297.421 87.02 297.645 87.628 297.752 88.332H296.616C296.488 87.564 296.195 86.9667 295.736 86.54C295.288 86.1027 294.723 85.884 294.04 85.884C293.517 85.884 293.053 86.028 292.648 86.316C292.253 86.604 291.944 86.9987 291.72 87.5C291.507 88.0013 291.4 88.5933 291.4 89.276C291.4 89.9587 291.507 90.5613 291.72 91.084C291.944 91.596 292.253 91.996 292.648 92.284C293.053 92.5613 293.517 92.7 294.04 92.7C294.733 92.7 295.304 92.4867 295.752 92.06C296.2 91.6227 296.488 91.0147 296.616 90.236H297.752C297.656 90.9507 297.437 91.564 297.096 92.076C296.765 92.588 296.339 92.9827 295.816 93.26C295.293 93.5373 294.701 93.676 294.04 93.676ZM295.624 95.388C295.624 95.772 295.469 96.0813 295.16 96.316C294.851 96.5507 294.461 96.668 293.992 96.668C293.523 96.668 293.123 96.5507 292.792 96.316C292.472 96.0813 292.28 95.7453 292.216 95.308H293C293.053 95.5533 293.165 95.7347 293.336 95.852C293.507 95.98 293.72 96.044 293.976 96.044C294.211 96.044 294.397 95.9747 294.536 95.836C294.685 95.708 294.76 95.548 294.76 95.356C294.76 95.1213 294.691 94.9347 294.552 94.796C294.424 94.668 294.253 94.5773 294.04 94.524C293.827 94.4707 293.597 94.46 293.352 94.492L293.72 93.34H294.392L294.136 94.092C294.573 94.124 294.931 94.2573 295.208 94.492C295.485 94.7267 295.624 95.0253 295.624 95.388ZM302.811 93.66C302.235 93.66 301.701 93.5533 301.211 93.34C300.72 93.1267 300.293 92.8227 299.931 92.428C299.579 92.0333 299.301 91.5693 299.099 91.036C298.907 90.5027 298.811 89.916 298.811 89.276C298.811 88.6467 298.907 88.0653 299.099 87.532C299.301 86.9987 299.579 86.54 299.931 86.156C300.293 85.7613 300.72 85.4573 301.211 85.244C301.701 85.0307 302.235 84.924 302.811 84.924C303.397 84.924 303.936 85.0307 304.427 85.244C304.917 85.4573 305.339 85.7613 305.691 86.156C306.053 86.54 306.331 86.9987 306.523 87.532C306.725 88.0653 306.827 88.6467 306.827 89.276C306.827 89.916 306.725 90.5027 306.523 91.036C306.331 91.5693 306.053 92.0333 305.691 92.428C305.339 92.8227 304.917 93.1267 304.427 93.34C303.936 93.5533 303.397 93.66 302.811 93.66ZM302.811 92.7C303.365 92.7 303.856 92.5613 304.283 92.284C304.72 91.996 305.061 91.596 305.307 91.084C305.563 90.572 305.691 89.9693 305.691 89.276C305.691 88.5827 305.563 87.9853 305.307 87.484C305.061 86.9827 304.72 86.5933 304.283 86.316C303.856 86.0387 303.365 85.9 302.811 85.9C302.267 85.9 301.776 86.0387 301.339 86.316C300.912 86.5933 300.571 86.9827 300.315 87.484C300.069 87.9853 299.947 88.5827 299.947 89.276C299.947 89.9693 300.069 90.572 300.315 91.084C300.571 91.596 300.912 91.996 301.339 92.284C301.776 92.5613 302.267 92.7 302.811 92.7ZM309.758 93.5H308.638V85.068H309.678V86.652C309.966 86.108 310.345 85.6813 310.814 85.372C311.294 85.0627 311.833 84.908 312.43 84.908C313.091 84.908 313.651 85.0787 314.11 85.42C314.579 85.7613 314.899 86.2413 315.07 86.86C315.326 86.2627 315.71 85.788 316.222 85.436C316.734 85.084 317.321 84.908 317.982 84.908C318.857 84.908 319.545 85.1853 320.046 85.74C320.558 86.284 320.814 87.0467 320.814 88.028V93.5H319.71V88.396C319.71 87.5853 319.529 86.9667 319.166 86.54C318.814 86.1027 318.297 85.884 317.614 85.884C317.187 85.884 316.798 86.0013 316.446 86.236C316.094 86.46 315.811 86.7747 315.598 87.18C315.395 87.5747 315.294 88.0333 315.294 88.556V93.5H314.174V88.396C314.174 87.5853 313.998 86.9667 313.646 86.54C313.294 86.1027 312.771 85.884 312.078 85.884C311.651 85.884 311.257 86.0013 310.894 86.236C310.542 86.46 310.265 86.7747 310.062 87.18C309.859 87.5747 309.758 88.0333 309.758 88.556V93.5Z" fill="white"/>
</svg>
